# xmcd
#
# Track frame offsets:
# 150
# 11375
# 20092
# 28987
# 36890
# 49647
# 64697
# 73867
# 84117
# 94657
# 107362
# 121507
# 132070
# 140202
# 150980
# 161690
# 172900
# 181017
# 191985
# 200567
# 211120
# 222800
#
# Disc length: 3091 seconds
#
#
# Revision: 4
# Processed by: cddbd v1.5.1PL2 Copyright (c) Steve Scherf et al.
# Submitted via: FreeRIP 2.945 
#
DISCID=220c1116
DTITLE=Roger Miller - Golden Classics
DYEAR=1996
DGENRE=Country
TTITLE0=King Of The Road
TTITLE1=England Swings
TTITLE2=Billy Bayou
TTITLE3=Dang Me
TTITLE4=Heartaches By The Number
TTITLE5=Me And Bobby McGee
TTITLE6=Chug-A-Lug
TTITLE7=Engine Engine #9
TTITLE8=Kansas City Star
TTITLE9=The Last Word In Lonesome Is Me
TTITLE10=My Elusive Dreams
TTITLE11=Release Me
TTITLE12=Do-Wacka-Do
TTITLE13=Don't We All Have The Right To Be Wrong
TTITLE14=Burning Bridges
TTITLE15=Husbands And Wives
TTITLE16=In The Summertime
TTITLE17=Everything's Coming Up Roses
TTITLE18=You Can't Rollerskate In A Buffalo Herd
TTITLE19=When Two World's Collide
TTITLE20=Walkin' In The Sunshine
TTITLE21=My Uncle Used To Love Me But She Died
EXTD=Twin Pack Music
EXTT0=
EXTT1=
EXTT2=
EXTT3=
EXTT4=
EXTT5=
EXTT6=
EXTT7=
EXTT8=
EXTT9=
EXTT10=
EXTT11=
EXTT12=
EXTT13=
EXTT14=
EXTT15=
EXTT16=
EXTT17=
EXTT18=
EXTT19=
EXTT20=
EXTT21=
PLAYORDER=
